<svg width="83" height="79" viewBox="0 0 83 79" fill="none" xmlns="http://www.w3.org/2000/svg">
<path d="M66.9092 0C74.7042 0 82.4998 2.59865 82.5 10.3936V31.1807C82.5 44.1725 82.4997 57.1648 72.1064 57.165C59.1149 57.1648 61.7129 41.5744 61.7129 33.7793L14 79L0.5 65.2539L46.1221 20.7871H35.7285C32.2639 21.6532 25.335 21.3067 25.335 12.9922C25.3351 4.67766 30.5319 0.000205505 35.7285 0H66.9092Z" fill="white"/>
<path d="M66.9092 0C74.7042 0 82.4998 2.59865 82.5 10.3936V31.1807C82.5 44.1725 82.4997 57.1648 72.1064 57.165C59.1149 57.1648 61.7129 41.5744 61.7129 33.7793L14 79L0.5 65.2539L46.1221 20.7871H35.7285C32.2639 21.6532 25.335 21.3067 25.335 12.9922C25.3351 4.67766 30.5319 0.000205505 35.7285 0H66.9092Z" fill="url(#paint0_linear_403_177)"/>
<defs>
<linearGradient id="paint0_linear_403_177" x1="41.5" y1="0" x2="41.5" y2="79" gradientUnits="userSpaceOnUse">
<stop stop-color="#E342E0"/>
<stop offset="1" stop-color="#E4C3E3"/>
</linearGradient>
</defs>
</svg>
