<svg width="67" height="94" viewBox="0 0 67 94" fill="none" xmlns="http://www.w3.org/2000/svg">
<path d="M61.4595 0C62.7875 6.34077e-05 64.0614 0.527717 65.0005 1.4668C65.9395 2.40592 66.4673 3.67974 66.4673 5.00781V22.8555C66.4673 24.1835 65.9396 25.4574 65.0005 26.3965C64.0614 27.3356 62.7875 27.8632 61.4595 27.8633C60.1314 27.8633 58.8576 27.3355 57.9185 26.3965C56.9793 25.4574 56.4517 24.1836 56.4517 22.8555V17.0928L47.1704 26.374C49.5269 29.8949 50.9778 33.9431 51.395 38.1592C51.8122 42.3753 51.1828 46.6295 49.562 50.5439C47.9413 54.4584 45.3794 57.9124 42.104 60.5996C38.8286 63.2868 34.9403 65.1246 30.7847 65.9492V71.377H37.6694C38.9974 71.3771 40.2714 71.9047 41.2105 72.8438C42.1495 73.7828 42.6772 75.0567 42.6773 76.3848C42.6773 77.7128 42.1494 78.9867 41.2105 79.9258C40.2714 80.8648 38.9974 81.3925 37.6694 81.3926H30.7847V88.2764C30.7847 89.6045 30.257 90.8782 29.3179 91.8174C28.3787 92.7565 27.105 93.2842 25.7769 93.2842C24.4489 93.2841 23.1749 92.7564 22.2358 91.8174C21.297 90.8783 20.77 89.6043 20.77 88.2764V81.3926H13.8726C13.2149 81.3926 12.5631 81.2634 11.9556 81.0117C11.3481 80.7601 10.7965 80.3907 10.3315 79.9258C9.86663 79.4609 9.49727 78.9092 9.24561 78.3018C8.99395 77.6942 8.86475 77.0424 8.86475 76.3848C8.86478 75.7273 8.99402 75.0762 9.24561 74.4688C9.49728 73.8612 9.86654 73.3088 10.3315 72.8438C10.7964 72.379 11.3483 72.0104 11.9556 71.7588C12.5631 71.5071 13.2149 71.377 13.8726 71.377H20.7632V65.9424C17.0255 65.2049 13.4979 63.6466 10.4351 61.3809C7.37224 59.1151 4.85023 56.1982 3.05128 52.8398C1.25234 49.4816 0.22091 45.766 0.0317447 41.9609C-0.157402 38.1559 0.500493 34.3561 1.95753 30.8359C3.41455 27.3158 5.63451 24.1628 8.45753 21.6045C11.2806 19.0462 14.6366 17.1465 18.2827 16.042C21.9288 14.9375 25.7744 14.6561 29.5425 15.2178C33.3106 15.7795 36.9072 17.1702 40.0728 19.29L49.354 10.0088H43.6118C42.2837 10.0088 41.0099 9.48109 40.0708 8.54199C39.1317 7.60286 38.604 6.32912 38.604 5.00098L38.6108 5.00781C38.6108 3.67967 39.1385 2.40593 40.0776 1.4668C41.0168 0.52776 42.2906 0 43.6187 0H61.4595Z" fill="#428AF8"/>
<path d="M61.4595 0C62.7875 6.34077e-05 64.0614 0.527717 65.0005 1.4668C65.9395 2.40592 66.4673 3.67974 66.4673 5.00781V22.8555C66.4673 24.1835 65.9396 25.4574 65.0005 26.3965C64.0614 27.3356 62.7875 27.8632 61.4595 27.8633C60.1314 27.8633 58.8576 27.3355 57.9185 26.3965C56.9793 25.4574 56.4517 24.1836 56.4517 22.8555V17.0928L47.1704 26.374C49.5269 29.8949 50.9778 33.9431 51.395 38.1592C51.8122 42.3753 51.1828 46.6295 49.562 50.5439C47.9413 54.4584 45.3794 57.9124 42.104 60.5996C38.8286 63.2868 34.9403 65.1246 30.7847 65.9492V71.377H37.6694C38.9974 71.3771 40.2714 71.9047 41.2105 72.8438C42.1495 73.7828 42.6772 75.0567 42.6773 76.3848C42.6773 77.7128 42.1494 78.9867 41.2105 79.9258C40.2714 80.8648 38.9974 81.3925 37.6694 81.3926H30.7847V88.2764C30.7847 89.6045 30.257 90.8782 29.3179 91.8174C28.3787 92.7565 27.105 93.2842 25.7769 93.2842C24.4489 93.2841 23.1749 92.7564 22.2358 91.8174C21.297 90.8783 20.77 89.6043 20.77 88.2764V81.3926H13.8726C13.2149 81.3926 12.5631 81.2634 11.9556 81.0117C11.3481 80.7601 10.7965 80.3907 10.3315 79.9258C9.86663 79.4609 9.49727 78.9092 9.24561 78.3018C8.99395 77.6942 8.86475 77.0424 8.86475 76.3848C8.86478 75.7273 8.99402 75.0762 9.24561 74.4688C9.49728 73.8612 9.86654 73.3088 10.3315 72.8438C10.7964 72.379 11.3483 72.0104 11.9556 71.7588C12.5631 71.5071 13.2149 71.377 13.8726 71.377H20.7632V65.9424C17.0255 65.2049 13.4979 63.6466 10.4351 61.3809C7.37224 59.1151 4.85023 56.1982 3.05128 52.8398C1.25234 49.4816 0.22091 45.766 0.0317447 41.9609C-0.157402 38.1559 0.500493 34.3561 1.95753 30.8359C3.41455 27.3158 5.63451 24.1628 8.45753 21.6045C11.2806 19.0462 14.6366 17.1465 18.2827 16.042C21.9288 14.9375 25.7744 14.6561 29.5425 15.2178C33.3106 15.7795 36.9072 17.1702 40.0728 19.29L49.354 10.0088H43.6118C42.2837 10.0088 41.0099 9.48109 40.0708 8.54199C39.1317 7.60286 38.604 6.32912 38.604 5.00098L38.6108 5.00781C38.6108 3.67967 39.1385 2.40593 40.0776 1.4668C41.0168 0.52776 42.2906 0 43.6187 0H61.4595Z" fill="url(#paint0_linear_403_184)"/>
<defs>
<linearGradient id="paint0_linear_403_184" x1="33.2336" y1="0" x2="33.2336" y2="93.2842" gradientUnits="userSpaceOnUse">
<stop stop-color="#E342E0"/>
<stop offset="1" stop-color="#E4C3E3"/>
</linearGradient>
</defs>
</svg>
