<svg width="74" height="91" viewBox="0 0 74 91" fill="none" xmlns="http://www.w3.org/2000/svg">
<path d="M46.301 81.7945C47.5118 81.7945 48.6733 82.2733 49.5295 83.1255C50.3855 83.9777 50.8664 85.1334 50.8664 86.3384C50.8664 87.5434 50.3856 88.6992 49.5295 89.5513C48.6733 90.4035 47.5118 90.8824 46.301 90.8824H28.0393C26.8285 90.8824 25.667 90.4035 24.8108 89.5513C23.9547 88.6992 23.4739 87.5434 23.4739 86.3384C23.4739 85.1334 23.9548 83.9777 24.8108 83.1255C25.667 82.2733 26.8285 81.7945 28.0393 81.7945H46.301ZM36.9768 0.000517179C45.3746 -0.0440547 53.5316 2.7936 60.0735 8.0347C66.6153 13.2758 71.1424 20.601 72.8928 28.7759C74.6431 36.9507 73.5102 45.4762 69.6838 52.9165C66.462 59.1811 61.4958 64.353 55.4192 67.8413C55.3624 69.2737 55.055 70.6864 54.5032 72.0132C53.8892 73.4893 52.9887 74.8308 51.8537 75.9605C50.7187 77.0902 49.371 77.9861 47.8879 78.5972C46.4049 79.2083 44.8153 79.5226 43.2102 79.522H31.1301C29.525 79.5226 27.9354 79.2083 26.4524 78.5972C24.9693 77.9861 23.6216 77.0902 22.4866 75.9605C21.3516 74.8308 20.4511 73.4893 19.8371 72.0132C19.2849 70.6854 18.9766 69.2718 18.9202 67.8384C12.9617 64.4168 8.0662 59.3743 4.8391 53.2613C0.93301 45.862 -0.292198 37.3488 1.37035 29.1558C3.03295 20.9628 7.48188 13.5902 13.967 8.27981C20.4524 2.96943 28.5789 0.045152 36.9768 0.000517179Z" fill="#428AF8"/>
<path d="M46.301 81.7945C47.5118 81.7945 48.6733 82.2733 49.5295 83.1255C50.3855 83.9777 50.8664 85.1334 50.8664 86.3384C50.8664 87.5434 50.3856 88.6992 49.5295 89.5513C48.6733 90.4035 47.5118 90.8824 46.301 90.8824H28.0393C26.8285 90.8824 25.667 90.4035 24.8108 89.5513C23.9547 88.6992 23.4739 87.5434 23.4739 86.3384C23.4739 85.1334 23.9548 83.9777 24.8108 83.1255C25.667 82.2733 26.8285 81.7945 28.0393 81.7945H46.301ZM36.9768 0.000517179C45.3746 -0.0440547 53.5316 2.7936 60.0735 8.0347C66.6153 13.2758 71.1424 20.601 72.8928 28.7759C74.6431 36.9507 73.5102 45.4762 69.6838 52.9165C66.462 59.1811 61.4958 64.353 55.4192 67.8413C55.3624 69.2737 55.055 70.6864 54.5032 72.0132C53.8892 73.4893 52.9887 74.8308 51.8537 75.9605C50.7187 77.0902 49.371 77.9861 47.8879 78.5972C46.4049 79.2083 44.8153 79.5226 43.2102 79.522H31.1301C29.525 79.5226 27.9354 79.2083 26.4524 78.5972C24.9693 77.9861 23.6216 77.0902 22.4866 75.9605C21.3516 74.8308 20.4511 73.4893 19.8371 72.0132C19.2849 70.6854 18.9766 69.2718 18.9202 67.8384C12.9617 64.4168 8.0662 59.3743 4.8391 53.2613C0.93301 45.862 -0.292198 37.3488 1.37035 29.1558C3.03295 20.9628 7.48188 13.5902 13.967 8.27981C20.4524 2.96943 28.5789 0.045152 36.9768 0.000517179Z" fill="url(#paint0_linear_403_163)"/>
<defs>
<linearGradient id="paint0_linear_403_163" x1="37.1713" y1="0" x2="37.1713" y2="90.8824" gradientUnits="userSpaceOnUse">
<stop stop-color="#E342E0"/>
<stop offset="1" stop-color="#E4C3E3"/>
</linearGradient>
</defs>
</svg>
