<svg width="293" height="253" viewBox="0 0 293 253" fill="none" xmlns="http://www.w3.org/2000/svg">
<path d="M0.499512 251.944V0H44.5991V213.033H192.664V251.944H0.499512Z" fill="url(#paint0_linear_403_202)"/>
<path d="M182.666 231.867C185.363 231.867 187.951 232.938 189.858 234.845C191.765 236.753 192.836 239.339 192.836 242.036C192.836 244.733 191.765 247.32 189.858 249.227C187.951 251.134 185.363 252.206 182.666 252.206H141.989C139.292 252.206 136.705 251.134 134.798 249.227C132.891 247.32 131.82 244.733 131.82 242.036C131.82 239.339 132.891 236.753 134.798 234.845C136.705 232.939 139.292 231.867 141.989 231.867H182.666ZM268.093 0.00170898C280.296 0.00177815 292.5 4.06933 292.5 16.2722V48.8152C292.5 69.1539 292.5 89.4926 276.229 89.4929C255.89 89.4929 259.957 65.086 259.957 52.8826L229.121 83.7185C235.256 92.5402 239.628 102.553 241.9 113.213C245.799 131.508 243.274 150.588 234.75 167.24C227.575 181.258 216.516 192.834 202.982 200.64C202.855 203.846 202.165 207.008 200.936 209.977C199.568 213.281 197.564 216.283 195.036 218.811C192.507 221.339 189.505 223.345 186.202 224.713C182.898 226.08 179.357 226.783 175.782 226.782H148.873C145.298 226.783 141.758 226.08 138.455 224.713C135.151 223.345 132.149 221.339 129.621 218.811C127.092 216.283 125.087 213.281 123.719 209.977C122.489 207.006 121.798 203.844 121.672 200.636C108.401 192.979 97.4999 181.691 90.312 168.011C81.6111 151.452 78.882 132.399 82.5854 114.063C86.2889 95.7273 96.1981 79.227 110.644 67.3425C125.09 55.4582 143.191 48.9151 161.897 48.8152C178.957 48.7242 195.57 53.9993 209.415 63.8259L207.077 61.0183L235.551 32.5437H219.28C213.856 33.8996 203.008 33.3573 203.008 20.3406C203.008 7.32375 211.144 0.00170898 219.28 0.00170898H268.093ZM127.803 140.228C121.594 140.228 116.561 145.262 116.561 151.47C116.561 157.679 121.595 162.712 127.803 162.712H193.775C199.984 162.712 205.017 157.679 205.017 151.47C205.017 145.262 199.984 140.228 193.775 140.228H127.803ZM127.803 97.6277C121.595 97.6277 116.561 102.66 116.561 108.869C116.561 115.078 121.594 120.111 127.803 120.111H193.775C199.984 120.111 205.017 115.078 205.017 108.869C205.017 102.66 199.983 97.6277 193.775 97.6277H127.803Z" fill="white"/>
<path d="M182.666 231.867C185.363 231.867 187.951 232.938 189.858 234.845C191.765 236.753 192.836 239.339 192.836 242.036C192.836 244.733 191.765 247.32 189.858 249.227C187.951 251.134 185.363 252.206 182.666 252.206H141.989C139.292 252.206 136.705 251.134 134.798 249.227C132.891 247.32 131.82 244.733 131.82 242.036C131.82 239.339 132.891 236.753 134.798 234.845C136.705 232.939 139.292 231.867 141.989 231.867H182.666ZM268.093 0.00170898C280.296 0.00177815 292.5 4.06933 292.5 16.2722V48.8152C292.5 69.1539 292.5 89.4926 276.229 89.4929C255.89 89.4929 259.957 65.086 259.957 52.8826L229.121 83.7185C235.256 92.5402 239.628 102.553 241.9 113.213C245.799 131.508 243.274 150.588 234.75 167.24C227.575 181.258 216.516 192.834 202.982 200.64C202.855 203.846 202.165 207.008 200.936 209.977C199.568 213.281 197.564 216.283 195.036 218.811C192.507 221.339 189.505 223.345 186.202 224.713C182.898 226.08 179.357 226.783 175.782 226.782H148.873C145.298 226.783 141.758 226.08 138.455 224.713C135.151 223.345 132.149 221.339 129.621 218.811C127.092 216.283 125.087 213.281 123.719 209.977C122.489 207.006 121.798 203.844 121.672 200.636C108.401 192.979 97.4999 181.691 90.312 168.011C81.6111 151.452 78.882 132.399 82.5854 114.063C86.2889 95.7273 96.1981 79.227 110.644 67.3425C125.09 55.4582 143.191 48.9151 161.897 48.8152C178.957 48.7242 195.57 53.9993 209.415 63.8259L207.077 61.0183L235.551 32.5437H219.28C213.856 33.8996 203.008 33.3573 203.008 20.3406C203.008 7.32375 211.144 0.00170898 219.28 0.00170898H268.093ZM127.803 140.228C121.594 140.228 116.561 145.262 116.561 151.47C116.561 157.679 121.595 162.712 127.803 162.712H193.775C199.984 162.712 205.017 157.679 205.017 151.47C205.017 145.262 199.984 140.228 193.775 140.228H127.803ZM127.803 97.6277C121.595 97.6277 116.561 102.66 116.561 108.869C116.561 115.078 121.594 120.111 127.803 120.111H193.775C199.984 120.111 205.017 115.078 205.017 108.869C205.017 102.66 199.983 97.6277 193.775 97.6277H127.803Z" fill="url(#paint1_linear_403_202)"/>
<defs>
<linearGradient id="paint0_linear_403_202" x1="63.0171" y1="24.9613" x2="63.0171" y2="251.944" gradientUnits="userSpaceOnUse">
<stop stop-color="#84B5FF"/>
<stop offset="1" stop-color="#0D68F1"/>
</linearGradient>
<linearGradient id="paint1_linear_403_202" x1="186.738" y1="0.00170898" x2="186.738" y2="252.206" gradientUnits="userSpaceOnUse">
<stop stop-color="#E342E0"/>
<stop offset="1" stop-color="#E4C3E3"/>
</linearGradient>
</defs>
</svg>
